<svg xmlns="http://www.w3.org/2000/svg" viewBox="0 0 51.19 19.87"><defs><style>.cls-1{fill:#1a2e37;}.cls-2{fill:#526c77;}.cls-3{fill:#bfd0d8;}</style></defs><title>tollyAsset 1</title><g id="Layer_2" data-name="Layer 2"><g id="Layer_2-2" data-name="Layer 2"><polygon class="cls-1" points="0 13.15 2.75 1.33 12.65 7.91 9.89 19.87 0 13.15"/><polygon class="cls-1" points="29.32 14.69 27.65 14.69 27.65 6.95 24.69 6.95 24.69 5.55 32.27 5.55 32.27 6.95 29.32 6.95 29.32 14.69"/><path class="cls-1" d="M37.44,10a3.09,3.09,0,0,0-.66-1.11,2.93,2.93,0,0,0-1.05-.7,3.64,3.64,0,0,0-1.4-.25A3.56,3.56,0,0,0,33,8.16a2.93,2.93,0,0,0-1.05.7A3.26,3.26,0,0,0,31.24,10,4.23,4.23,0,0,0,31,11.39a4.27,4.27,0,0,0,.23,1.42,3.05,3.05,0,0,0,.66,1.1,3.09,3.09,0,0,0,1.05.71,3.84,3.84,0,0,0,1.4.25,3.75,3.75,0,0,0,1.37-.25,3.09,3.09,0,0,0,1.05-.71,3.22,3.22,0,0,0,.67-1.1,4.27,4.27,0,0,0,.23-1.42A4.23,4.23,0,0,0,37.44,10Zm-1.57,2.35a1.84,1.84,0,0,1-.34.67,1.46,1.46,0,0,1-.52.41,1.59,1.59,0,0,1-.66.14,1.64,1.64,0,0,1-.67-.14,1.38,1.38,0,0,1-.52-.41,1.85,1.85,0,0,1-.35-.67,3.66,3.66,0,0,1,0-1.86,2.06,2.06,0,0,1,.34-.68,1.46,1.46,0,0,1,.52-.41,1.66,1.66,0,0,1,.66-.14,1.6,1.6,0,0,1,.67.14,1.41,1.41,0,0,1,.53.41,1.89,1.89,0,0,1,.34.68,3.39,3.39,0,0,1,0,1.86Z"/><rect class="cls-1" x="38.29" y="4.8" width="1.62" height="9.9"/><rect class="cls-1" x="40.93" y="4.8" width="1.62" height="9.9"/><path class="cls-1" d="M44.13,8.07h1.74l1,2.4c.38.91.64,1.58.8,2h0c.12-.34.36-1,.73-1.9l1-2.52h1.76l-4.27,9.8h-1.6l1.52-3.55Z"/><polygon class="cls-2" points="3.1 10.03 9.95 0 16.8 9.72 9.89 19.87 3.1 10.03"/><polygon class="cls-3" points="7.13 8.24 17.14 1.37 20.01 12.91 9.89 19.87 7.13 8.24"/></g></g></svg>