<svg xmlns="http://www.w3.org/2000/svg" viewBox="0 0 63.77 78.08"><title>pattern3Asset 3</title><g id="Layer_2" data-name="Layer 2"><g id="Layer_2-2" data-name="Layer 2"><path d="M48.67,26H48a15.12,15.12,0,0,1-15.11-15.1V9.85h8.5v1.09A6.62,6.62,0,0,0,48,17.54h.69a6.61,6.61,0,0,0,6.6-6.6V0h8.5V10.94A15.11,15.11,0,0,1,48.67,26Z"/><path d="M47,63.52v.87a26.22,26.22,0,0,1-3.84,13.69H32.06a17.78,17.78,0,0,0,6.41-13.68v-.87A17.83,17.83,0,0,0,20.66,45.71H15.84v-8.5h4.82A26.34,26.34,0,0,1,47,63.52Z"/><path d="M30.34,64.36v.44A13.3,13.3,0,0,1,17.06,78.08H4.69A13,13,0,0,1,0,77.21V67.48l.54-.31a4.78,4.78,0,0,0,4.15,2.41H17.06a4.79,4.79,0,0,0,4.78-4.78v-.44a4.78,4.78,0,0,0-4.78-4.78H4.69A4.8,4.8,0,0,0,.1,63L0,63V52a13,13,0,0,1,4.69-.87H17.06A13.29,13.29,0,0,1,30.34,64.36Z"/></g></g></svg>