<svg xmlns="http://www.w3.org/2000/svg" viewBox="0 0 70.26 77.44"><title>pattern2Asset 2</title><g id="Layer_2" data-name="Layer 2"><g id="Layer_2-2" data-name="Layer 2"><path d="M43.2,14.39v3.48A26.69,26.69,0,0,1,16.54,44.54H13V36h3.59A18.19,18.19,0,0,0,34.7,17.87V14.39A18.2,18.2,0,0,0,27.61,0H39A26.7,26.7,0,0,1,43.2,14.39Z"/><path d="M15.75,28.93H0v-8.5H15.75a4.51,4.51,0,0,0,0-9H.2V2.91H15.75a13,13,0,0,1,0,26Z"/><path d="M37.9,77.44H29.4V66A19.64,19.64,0,0,1,49,46.35h1.64A19.64,19.64,0,0,1,70.26,66v11.4h-8.5V66A11.13,11.13,0,0,0,50.65,54.85H49A11.13,11.13,0,0,0,37.9,66Z"/></g></g></svg>